<svg xmlns="http://www.w3.org/2000/svg" fill="#fff" viewBox="0 0 174 40">
    <path d="m55.607 11.36 4.018 11.343 3.996-11.344h4.233V27H64.62v-4.275l.322-7.38L60.721 27h-2.213l-4.211-11.645.322 7.37V27h-3.223V11.36zM77.2 27a3.5 3.5 0 0 1-.311-1.042q-1.128 1.257-2.933 1.257-1.708 0-2.83-.988-1.123-.99-1.123-2.493 0-1.847 1.37-2.836 1.37-.987 3.958-.999h1.429v-.666q0-.805-.414-1.289-.413-.483-1.305-.483-.784 0-1.23.376-.446.375-.446 1.031H70.26q0-1.01.623-1.869.622-.86 1.762-1.348 1.138-.489 2.556-.489 2.149 0 3.41 1.08 1.263 1.08 1.263 3.034v5.038q.01 1.655.462 2.503V27zm-2.567-2.16q.687 0 1.267-.305a2 2 0 0 0 .86-.822v-1.998H75.6q-2.332 0-2.482 1.611l-.01.183q0 .58.408.956.408.375 1.117.376Zm18.09-3.544q0 2.685-1.22 4.302t-3.292 1.617q-1.762 0-2.847-1.225v5.479H82.26V15.377h2.879l.107 1.139q1.128-1.354 2.943-1.354 2.149 0 3.341 1.59t1.193 4.383v.16Zm-3.105-.226q0-1.621-.575-2.503-.575-.88-1.67-.88-1.46 0-2.009 1.117v4.759q.57 1.149 2.03 1.149 2.224 0 2.224-3.642m11.387-.397H97.33V27h-2.073V11.36h5.178q2.642 0 4.065 1.203 1.425 1.203 1.424 3.501 0 1.461-.79 2.546-.789 1.085-2.197 1.622l3.674 6.64V27h-2.213zm-3.674-1.687h3.169q1.536 0 2.444-.795c.908-.795.908-1.239.908-2.127q0-1.45-.865-2.223-.866-.774-2.498-.784H97.33v5.93Zm10.646 2.095q0-1.708.671-3.072t1.87-2.106q1.197-.74 2.733-.74 2.374 0 3.84 1.643 1.467 1.643 1.467 4.372v.14q0 1.696-.65 3.045t-1.859 2.1q-1.207.752-2.777.752-2.363 0-3.83-1.644-1.465-1.643-1.465-4.35zm1.998.236q0 1.934.897 3.105.897 1.17 2.4 1.17 1.515 0 2.407-1.186.891-1.188.891-3.325 0-1.912-.907-3.1-.909-1.186-2.412-1.186-1.471 0-2.374 1.17-.903 1.172-.902 3.352m18.25 4.534q-1.16 1.364-3.405 1.364-1.858 0-2.83-1.08t-.983-3.196v-7.562h1.987v7.509q0 2.642 2.149 2.642 2.277 0 3.029-1.697v-8.454h1.987V27h-1.89l-.043-1.15ZM135.337 27h-1.987V10.5h1.987zm8.003.215q-2.364 0-3.846-1.552t-1.482-4.152v-.365q0-1.73.66-3.089t1.848-2.127a4.64 4.64 0 0 1 2.573-.768q2.266 0 3.523 1.493t1.257 4.276v.827h-7.874q.043 1.719 1.004 2.777.962 1.058 2.444 1.058 1.053 0 1.783-.43a4.5 4.5 0 0 0 1.279-1.139l1.214.946q-1.461 2.245-4.383 2.245m-.247-10.42a2.65 2.65 0 0 0-2.02.875q-.816.876-1.01 2.455h5.823v-.15q-.087-1.515-.817-2.348-.73-.832-1.976-.832m9.775-4.233v2.815h2.17v1.536h-2.17v7.208q0 .699.29 1.047.29.35.989.35.344 0 .945-.13V27a5.8 5.8 0 0 1-1.526.215q-1.332 0-2.008-.806-.678-.806-.677-2.288v-7.208h-2.116v-1.536h2.116v-2.815zm7.187 0v2.815h2.17v1.536h-2.17v7.208q0 .699.29 1.047.29.35.988.35.344 0 .945-.13V27a5.8 5.8 0 0 1-1.525.215q-1.332 0-2.009-.806t-.677-2.288v-7.208h-2.116v-1.536h2.116v-2.815zm9.313 14.653q-2.362 0-3.846-1.552-1.482-1.553-1.482-4.152v-.365q0-1.73.66-3.089.661-1.359 1.848-2.127a4.64 4.64 0 0 1 2.573-.768q2.267 0 3.524 1.493 1.256 1.493 1.256 4.276v.827h-7.874q.043 1.719 1.005 2.777.96 1.058 2.444 1.058 1.052 0 1.783-.43a4.5 4.5 0 0 0 1.278-1.139l1.214.946q-1.461 2.245-4.383 2.245m-.247-10.42a2.65 2.65 0 0 0-2.02.875q-.815.876-1.01 2.455h5.823v-.15q-.086-1.515-.816-2.348-.73-.832-1.977-.832m-149.246 8.67a5.59 5.59 0 1 1 0-11.18 5.59 5.59 0 0 1 0 11.18m0-1.242a4.348 4.348 0 1 0 0-8.695 4.348 4.348 0 0 0 0 8.695"/>
    <path d="m27.848 11.92-2.856 5.819-2.964-2.965zM11.886 27.79l2.855-5.819 2.964 2.964z"/>
    <path d="M36.438 20.538a.662.662 0 1 0 0-1.325h-2.004a14.6 14.6 0 0 0-.325-2.466l1.936-.519a.662.662 0 1 0-.342-1.28l-1.936.519a14.4 14.4 0 0 0-.957-2.296l1.74-1.004a.662.662 0 1 0-.663-1.147l-1.741 1.005q-.675-1.052-1.513-1.972l1.422-1.422a.663.663 0 0 0-.937-.937l-1.422 1.422a14.7 14.7 0 0 0-1.972-1.512l1.005-1.741a.663.663 0 1 0-1.147-.663l-1.005 1.74a14.5 14.5 0 0 0-2.295-.958L24.8 4.05a.662.662 0 1 0-1.28-.344L23 5.642a14.6 14.6 0 0 0-2.465-.324V3.313a.662.662 0 1 0-1.324 0l-.001 2.004c-.842.038-1.666.15-2.465.325l-.52-1.936a.662.662 0 1 0-1.278.342l.518 1.936a14.5 14.5 0 0 0-2.296.957L12.166 5.2a.662.662 0 1 0-1.147.662l1.005 1.742c-.7.45-1.36.954-1.972 1.513l-1.42-1.422a.664.664 0 0 0-.938.937l1.42 1.422a14.7 14.7 0 0 0-1.51 1.972L5.862 11.02a.662.662 0 1 0-.663 1.148l1.74 1.005a14.5 14.5 0 0 0-.957 2.296l-1.935-.52a.663.663 0 0 0-.344 1.28l1.938.52c-.175.8-.286 1.622-.324 2.465l-2.005-.001a.663.663 0 0 0-.001 1.325l2.006.001c.038.843.15 1.666.325 2.466l-1.937.517a.663.663 0 0 0 .341 1.28l1.938-.517c.254.797.576 1.564.957 2.295L5.2 27.582a.663.663 0 0 0 .66 1.15l1.744-1.006c.45.7.954 1.36 1.513 1.972l-1.423 1.42a.662.662 0 1 0 .936.938l1.424-1.42a14.7 14.7 0 0 0 1.971 1.51l-1.007 1.742a.662.662 0 0 0 1.147.663l1.006-1.74a14.5 14.5 0 0 0 2.296.956l-.52 1.934a.662.662 0 1 0 1.28.345l.52-1.937q1.201.266 2.465.325l-.001 2.003a.662.662 0 1 0 1.325.001l.001-2.004a14.5 14.5 0 0 0 2.466-.325l.517 1.936a.662.662 0 1 0 1.28-.342l-.517-1.935a14.4 14.4 0 0 0 2.295-.957l1.003 1.74a.66.66 0 0 0 .904.243.66.66 0 0 0 .243-.905l-1.003-1.743c.699-.449 1.36-.953 1.971-1.512l1.42 1.422a.66.66 0 0 0 .937 0 .664.664 0 0 0 .001-.936l-1.421-1.423a14.6 14.6 0 0 0 1.513-1.971l1.739 1.005a.665.665 0 0 0 .905-.242.66.66 0 0 0-.242-.905l-1.738-1.005c.381-.732.703-1.499.957-2.296l1.933.52a.663.663 0 0 0 .344-1.28l-1.936-.52q.266-1.201.325-2.465h2.004ZM19.875 33.126c-7.306 0-13.25-5.944-13.25-13.25 0-7.307 5.944-13.25 13.25-13.25 7.307 0 13.25 5.943 13.25 13.25 0 7.306-5.943 13.25-13.25 13.25"/>
    <path d="M19.875 0C8.916 0 0 8.916 0 19.875c0 10.96 8.916 19.876 19.875 19.876 10.96 0 19.876-8.916 19.876-19.876C39.75 8.916 30.835 0 19.875 0m0 38.426c-10.228 0-18.55-8.322-18.55-18.55 0-10.23 8.322-18.551 18.55-18.551s18.55 8.322 18.55 18.55-8.321 18.55-18.55 18.55Z"/>
</svg>
